<svg id="Layer_1" data-name="Layer 1" xmlns="http://www.w3.org/2000/svg" viewBox="0 0 1781.95 453.13"><defs><style>.cls-1{fill:#fff;}.cls-2{fill:#3f9;}</style></defs><path class="cls-1" d="M769.64,326.54V183.28l-57.3,108.49H695.51L637.94,183.28V326.54H607.52v-199h32.59l63.82,121.67,63.81-121.67h32.59V326.54Z"/><path class="cls-1" d="M942.36,127.49h26.52l75.77,199.05h-31.93l-20.3-54.11H918.28l-20,54.11h-32.2Zm44.11,121.67-30.85-85.51-31.93,85.51Z"/><path class="cls-1" d="M1139.88,186.36V326.54h-29.63v-199h23.28L1240.93,271V127.77h29.89V326.54h-24.6Z"/><path class="cls-1" d="M1482.25,155.24h-58.59v171.3H1395.6V155.24h-58.84V127.49h145.49Z"/><path class="cls-1" d="M1548.19,326.54v-199h29V326.54Z"/><path class="cls-1" d="M1766.14,232.25a67.76,67.76,0,0,0-18.45-10.75,206.53,206.53,0,0,0-24.48-8q-11-3-19.33-5.65a60.37,60.37,0,0,1-13.8-6.06,23.61,23.61,0,0,1-8.16-8q-2.62-4.54-2.63-11.72,0-12.67,8.41-19.85t26.23-7.16a63.71,63.71,0,0,1,15.68,1.93,75.94,75.94,0,0,1,14.06,5,70.43,70.43,0,0,1,11.17,6.48c1.22.88,2.29,1.73,3.29,2.57l16.79-21.45a107.7,107.7,0,0,0-26.86-15.72,86.33,86.33,0,0,0-33.38-6.34,82,82,0,0,0-25.6,3.86,58,58,0,0,0-20.46,11.44,54,54,0,0,0-13.68,18.75,61.5,61.5,0,0,0-5,25.5q0,11.58,3.39,19.71a40.39,40.39,0,0,0,9.91,14.2,57.15,57.15,0,0,0,16.44,10.34,199,199,0,0,0,23.22,8.13q11.55,3.3,20.59,6.34a80.37,80.37,0,0,1,15.31,6.75,29.88,29.88,0,0,1,9.66,8.69,21.5,21.5,0,0,1,3.39,12.41q0,12.39-9,18.74t-25.6,6.34a74.4,74.4,0,0,1-19.83-2.62,117.14,117.14,0,0,1-17.7-6.34,85,85,0,0,1-14.3-8.13c-1.4-1-2.65-2-3.83-2.9l-18.39,21.37a109.49,109.49,0,0,0,34.26,19.71,116,116,0,0,0,39.29,6.76,97.15,97.15,0,0,0,25.35-3.18,59.07,59.07,0,0,0,20.71-9.92,47,47,0,0,0,14-17.5q5.15-10.76,5.15-25.64,0-13.24-4.14-22.47A43.14,43.14,0,0,0,1766.14,232.25Z"/><polygon class="cls-2" points="283.23 0 232.65 125.89 364.13 453.13 414.72 327.24 283.23 0"/><polygon class="cls-1" points="131.48 125.89 80.9 0 30.32 125.89 0 201.35 50.58 327.24 80.9 251.78 161.8 453.13 212.38 327.24 131.48 125.89"/></svg>