<svg xmlns="http://www.w3.org/2000/svg" viewBox="0 0 365 115.56">
  <g fill="#FF006E">
    <path d="M131.26 0s-17.01 3.05-20.5 24.42c-3.49 21.37-11.34 75.01-11.34 75.01s2.62 16.14 15.92 16.14h46.44l4.8-33.14-28.35-.44s-6.11-1.74-5.23-6.98c.87-5.23 6.11-33.58 6.11-33.58s0-5.67 8.29-5.67 27.91.44 27.91.44l6.1-36.2h-50.15zM41.86 2.18L0 115.56h30.96l6.11-16.14h22.24v16.14h30.96V2.18H41.86zm17.45 63.67H48.19l11.12-24.42v24.42zM214.12 71.52v44.04h18.31l15.7-44.04-8.72 44.04h27.91L289.56 0h-39.25l-17.88 43.17V0H195.8l-22.68 115.56h30.97zM349.3 79.8h-30.96l3.05-11.77h30.53l4.79-24.86h-31.39l2.61-10.03h31.4L365 0h-62.36l-20.93 115.56h61.92z"/>
  </g>
</svg>
