<?xml version="1.0" encoding="UTF-8"?>
<svg width="145px" height="35px" viewBox="0 0 145 35" version="1.1" xmlns="http://www.w3.org/2000/svg" xmlns:xlink="http://www.w3.org/1999/xlink">
    <title>logos/iohk-logo-vector-dark</title>
    <g id="logos/iohk-logo-vector-dark" stroke="none" stroke-width="1" fill="none" fill-rule="evenodd">
        <g fill="#FFFFFF" fill-rule="nonzero" id="logos/iohk-logo-vector">
            <g>
                <rect id="Rectangle" x="55.3166854" y="13.7301966" width="1" height="7.88457865"></rect>
                <rect id="Rectangle" x="93.4011798" y="9.0983427" width="1" height="17.1474719"></rect>
                <g id="Group">
                    <path d="M64.1470225,20.1501124 L64.1804213,20.1387079 C64.1291011,19.9586798 64.1005899,19.7786517 64.1005899,19.597809 L64.1005899,13.7301966 L65.0471629,13.7301966 L65.0471629,21.6139607 L64.1005899,21.6139607 L59.9794944,15.2844663 L59.9452809,15.2958708 C59.9982303,15.4758989 60.0242978,15.655927 60.0242978,15.8367697 L60.0242978,21.6139607 L59.0777247,21.6139607 L59.0777247,13.7301966 L60.0242978,13.7301966 L64.1470225,20.1501124 Z" id="Path"></path>
                    <path d="M68.8082022,18.460618 L68.8082022,21.6139607 L67.8632584,21.6139607 L67.8632584,13.7301966 L72.0299719,13.7301966 C72.21,13.7301966 72.3900281,13.8051404 72.5708708,13.9558427 L72.8405056,14.1798596 C73.0213483,14.3305618 73.1109551,14.518736 73.1109551,14.7435674 L73.1109551,17.445618 C73.1109551,17.671264 73.0213483,17.8586236 72.8405056,18.0085112 L72.5708708,18.2333427 C72.3900281,18.3840449 72.21,18.4581742 72.0299719,18.4581742 L68.8082022,18.4581742 L68.8082022,18.460618 Z M68.8082022,14.5195506 L68.8082022,17.6728933 L71.6137079,17.6728933 C71.748118,17.6728933 71.8344663,17.6663764 71.8719382,17.6557865 C71.9094101,17.644382 71.9615449,17.6126124 72.0291573,17.5604775 C72.0967697,17.5083427 72.1358708,17.4651685 72.1472753,17.4309551 C72.1594944,17.3967416 72.164382,17.323427 72.164382,17.2110112 L72.164382,14.9814326 C72.164382,14.8682022 72.1586798,14.7948876 72.1472753,14.7614888 C72.1358708,14.7264607 72.0967697,14.6832865 72.0291573,14.6311517 C71.9615449,14.5798315 71.9094101,14.5464326 71.8719382,14.5358427 C71.8336517,14.5244382 71.748118,14.5195506 71.6137079,14.5195506 L68.8082022,14.5195506 L68.8082022,14.5195506 Z" id="Shape"></path>
                    <path d="M80.6908708,13.7301966 L81.6374438,13.7301966 L81.6374438,20.6005899 C81.6374438,20.826236 81.5470225,21.0135955 81.3669944,21.1634831 L81.0965449,21.3891292 C80.9165169,21.5390169 80.7373034,21.6139607 80.5556461,21.6139607 L76.727809,21.6139607 C76.5461517,21.6139607 76.3669382,21.5382022 76.1852809,21.3891292 L75.9164607,21.1634831 C75.7348034,21.0127809 75.6460112,20.826236 75.6460112,20.6005899 L75.6460112,13.7301966 L76.5909551,13.7301966 L76.5909551,20.3651685 C76.5909551,20.4767697 76.5974719,20.5500843 76.6080618,20.5834831 C76.6194663,20.6185112 76.6585674,20.6616854 76.7269944,20.7138202 C76.7937921,20.7659551 76.845927,20.7985393 76.8842135,20.8091292 C76.9208708,20.8205337 77.0080337,20.826236 77.1416292,20.826236 L80.1377528,20.826236 C80.2729775,20.826236 80.3585112,20.8197191 80.3967978,20.8091292 C80.4350843,20.7985393 80.4872191,20.7659551 80.5540169,20.7138202 C80.6208146,20.6616854 80.6623596,20.6185112 80.6721348,20.5834831 C80.6851685,20.5500843 80.6892416,20.4767697 80.6892416,20.3651685 L80.6892416,13.7301966 L80.6908708,13.7301966 Z" id="Path"></path>
                    <polygon id="Path" points="83.2585112 13.7301966 89.2059551 13.7301966 89.2059551 14.5195506 86.7051124 14.5195506 86.7051124 21.6147753 85.7577247 21.6147753 85.7577247 14.5195506 83.2585112 14.5195506"></polygon>
                    <path d="M100.141236,13.7301966 L104.263961,13.7301966 C104.443989,13.7301966 104.623202,13.8059551 104.80486,13.9550281 L105.075309,14.1798596 C105.255337,14.3297472 105.344129,14.5179213 105.344129,14.7427528 L105.344129,20.5989607 C105.344129,20.8237921 105.255337,21.0127809 105.075309,21.1618539 L104.80486,21.3875 C104.623202,21.5373876 104.443989,21.6123315 104.263961,21.6123315 L100.141236,21.6123315 C99.9612079,21.6123315 99.7819944,21.536573 99.6003371,21.3875 L99.3298876,21.1618539 C99.1498596,21.0119663 99.0610674,20.8237921 99.0610674,20.5989607 L99.0610674,14.744382 C99.0610674,14.5195506 99.1498596,14.3305618 99.3298876,14.1814888 L99.6003371,13.9566573 C99.7811798,13.8059551 99.9612079,13.7301966 100.141236,13.7301966 M104.398371,20.3635393 L104.398371,14.9814326 C104.398371,14.8682022 104.391854,14.7948876 104.381264,14.7606742 C104.36986,14.7280899 104.330758,14.6849157 104.263146,14.6311517 C104.194719,14.5790169 104.144213,14.5464326 104.105927,14.5366573 C104.06764,14.5244382 103.982107,14.5195506 103.846882,14.5195506 L100.558315,14.5195506 C100.42309,14.5195506 100.337556,14.5252528 100.29927,14.5366573 C100.260983,14.5472472 100.208848,14.5790169 100.142051,14.6311517 C100.075253,14.6849157 100.035337,14.7280899 100.023933,14.7606742 C100.012528,14.7948876 100.006826,14.8682022 100.006826,14.9814326 L100.006826,20.3635393 C100.006826,20.4767697 100.013343,20.5500843 100.023933,20.5834831 C100.035337,20.6185112 100.074438,20.6616854 100.142051,20.7138202 C100.209663,20.7659551 100.260983,20.7985393 100.29927,20.8091292 C100.337556,20.8197191 100.42309,20.826236 100.558315,20.826236 L103.846882,20.826236 C103.982107,20.826236 104.06764,20.8205337 104.105927,20.8091292 C104.144213,20.7977247 104.194719,20.7659551 104.263146,20.7138202 C104.329944,20.6616854 104.36986,20.6185112 104.381264,20.5834831 C104.391854,20.5500843 104.398371,20.4767697 104.398371,20.3635393" id="Shape"></path>
                    <path d="M113.205084,13.7301966 L114.151657,13.7301966 L114.151657,20.6005899 C114.151657,20.826236 114.062865,21.0135955 113.881208,21.1634831 L113.610758,21.3891292 C113.43073,21.5390169 113.251517,21.6139607 113.06986,21.6139607 L109.242022,21.6139607 C109.060365,21.6139607 108.881152,21.5382022 108.701124,21.3891292 L108.430674,21.1634831 C108.250646,21.0127809 108.160225,20.826236 108.160225,20.6005899 L108.160225,13.7301966 L109.105169,13.7301966 L109.105169,20.3651685 C109.105169,20.4767697 109.111685,20.5500843 109.123904,20.5834831 C109.13368,20.6185112 109.173596,20.6616854 109.242022,20.7138202 C109.30882,20.7659551 109.360955,20.7985393 109.399242,20.8091292 C109.435899,20.8205337 109.523062,20.826236 109.658287,20.826236 L112.65441,20.826236 C112.788006,20.826236 112.875169,20.8197191 112.911826,20.8091292 C112.950112,20.7977247 113.002247,20.7659551 113.069045,20.7138202 C113.137472,20.6616854 113.177388,20.6185112 113.187163,20.5834831 C113.200197,20.5500843 113.20427,20.4767697 113.20427,20.3651685 L113.20427,13.7301966 L113.205084,13.7301966 Z" id="Path"></path>
                    <polygon id="Path" points="115.772725 13.7301966 121.720169 13.7301966 121.720169 14.5195506 119.219326 14.5195506 119.219326 21.6147753 118.273567 21.6147753 118.273567 14.5195506 115.772725 14.5195506"></polygon>
                    <path d="M124.299213,18.460618 L124.299213,21.6139607 L123.35264,21.6139607 L123.35264,13.7301966 L127.520983,13.7301966 C127.701011,13.7301966 127.880225,13.8051404 128.060253,13.9558427 L128.330702,14.1798596 C128.51073,14.3305618 128.601152,14.518736 128.601152,14.7435674 L128.601152,17.445618 C128.601152,17.671264 128.51073,17.8586236 128.330702,18.0085112 L128.060253,18.2333427 C127.880225,18.3840449 127.701011,18.4581742 127.520983,18.4581742 L124.299213,18.4581742 L124.299213,18.460618 Z M124.299213,14.5195506 L124.299213,17.6728933 L127.102275,17.6728933 C127.2375,17.6728933 127.324663,17.6663764 127.36132,17.6557865 C127.399607,17.644382 127.451742,17.6126124 127.520169,17.5604775 C127.586966,17.5083427 127.626882,17.4651685 127.638287,17.4309551 C127.649691,17.3967416 127.655393,17.323427 127.655393,17.2110112 L127.655393,14.9814326 C127.655393,14.8682022 127.648876,14.7948876 127.638287,14.7614888 C127.626882,14.7264607 127.587781,14.6832865 127.520169,14.6311517 C127.451742,14.5798315 127.399607,14.5464326 127.36132,14.5358427 C127.324663,14.5244382 127.2375,14.5195506 127.102275,14.5195506 L124.299213,14.5195506 L124.299213,14.5195506 Z" id="Shape"></path>
                    <path d="M136.181067,13.7301966 L137.12764,13.7301966 L137.12764,20.6005899 C137.12764,20.826236 137.037219,21.0135955 136.855562,21.1634831 L136.586742,21.3891292 C136.405084,21.5390169 136.225871,21.6139607 136.045843,21.6139607 L132.216376,21.6139607 C132.036348,21.6139607 131.857135,21.5382022 131.675478,21.3891292 L131.406657,21.1634831 C131.225,21.0127809 131.136208,20.826236 131.136208,20.6005899 L131.136208,13.7301966 L132.081152,13.7301966 L132.081152,20.3651685 C132.081152,20.4767697 132.087669,20.5500843 132.098258,20.5834831 C132.109663,20.6185112 132.148764,20.6616854 132.216376,20.7138202 C132.284803,20.7659551 132.335309,20.7985393 132.373596,20.8091292 C132.411882,20.8197191 132.497416,20.826236 132.63264,20.826236 L135.628764,20.826236 C135.763989,20.826236 135.849522,20.8197191 135.887809,20.8091292 C135.924466,20.7977247 135.97823,20.7659551 136.045028,20.7138202 C136.113455,20.6616854 136.151742,20.6185112 136.163146,20.5834831 C136.174551,20.5500843 136.180253,20.4767697 136.180253,20.3651685 L136.180253,13.7301966 L136.181067,13.7301966 Z" id="Path"></path>
                    <polygon id="Path" points="138.748708 13.7301966 144.694522 13.7301966 144.694522 14.5195506 142.195309 14.5195506 142.195309 21.6147753 141.248736 21.6147753 141.248736 14.5195506 138.748708 14.5195506"></polygon>
                    <path d="M3.10853933,2.00230337 C3.02544944,1.28789326 2.40390449,0.72988764 1.6675,0.72988764 C0.87244382,0.72988764 0.22238764,1.37505618 0.22238764,2.16929775 C0.22238764,2.96272472 0.863483146,3.60789326 1.65691011,3.60789326 C2.35339888,3.60789326 2.93502809,3.10935393 3.06617978,2.45196629 C13.5746067,2.54320225 22.1670787,8.75783708 22.8472753,16.5772472 C22.2949719,15.5035955 21.2319101,13.7342697 19.5000562,11.9462079 C16.9992135,9.3647191 12.5791573,6.28794944 5.72587079,6.28794944 C5.69898876,6.28794944 5.67373596,6.29283708 5.64929775,6.30261236 C5.53525281,5.62241573 4.94466292,5.10188202 4.23188202,5.10188202 C3.43845506,5.10188202 2.79328652,5.74705056 2.79328652,6.54047753 C2.79328652,7.33390449 3.43845506,7.97907303 4.23188202,7.97907303 C4.96258427,7.97907303 5.56702247,7.4316573 5.65662921,6.72457865 C5.6794382,6.73272472 5.70224719,6.73679775 5.72587079,6.73679775 C12.4129775,6.73679775 16.7255056,9.73210674 19.1652528,12.2451685 C20.7325562,13.8589045 21.75,15.4864888 22.3234831,16.552809 C21.5748596,15.8799438 20.4197472,14.9211517 18.9673034,13.969691 C16.53,12.3730618 12.7290449,10.4733989 8.45480337,10.4676966 C8.34646067,9.77935393 7.75261236,9.24904494 7.03412921,9.24904494 C6.23988764,9.24904494 5.59553371,9.89421348 5.59553371,10.6884551 C5.59553371,11.481882 6.23988764,12.1270506 7.03412921,12.1270506 C7.75016854,12.1270506 8.34320225,11.6016292 8.45317416,10.9157303 C14.8372472,10.9238764 20.2470506,15.2673596 22.1874438,17.0383146 C20.0352528,16.266882 14.8942697,14.5708708 11.0444382,14.4975562 C10.9857865,13.756264 10.3666854,13.172191 9.61154494,13.172191 C8.81730337,13.172191 8.17213483,13.8181742 8.17213483,14.6107865 C8.17213483,15.4042135 8.81730337,16.0510112 9.61154494,16.0510112 C10.2892978,16.0510112 10.8578933,15.5369944 11.0085955,14.9040449 C14.812809,14.9692135 19.9432022,16.6896629 22.0603652,17.3894101 L16.2416292,17.3894101 L14.6254494,17.3894101 C14.5415449,16.6904775 13.9338483,16.1585393 13.1966292,16.1585393 C12.4040169,16.1585393 11.7588483,16.824073 11.7588483,17.6175 C11.7588483,18.410927 12.4040169,19.0341011 13.1966292,19.0341011 C13.893118,19.0341011 14.477191,18.5526685 14.6083427,17.8553652 L16.2416292,17.8553652 L21.9536517,17.8553652 C19.7786517,18.7864607 14.7525281,20.3097753 11.0077809,20.3733146 C10.8570787,19.7403652 10.2884831,19.2841854 9.61073034,19.2841854 C8.81648876,19.2841854 8.17132022,19.9375 8.17132022,20.7301124 C8.17132022,21.5243539 8.81648876,22.1727809 9.61073034,22.1727809 C10.3658708,22.1727809 10.9849719,21.5887079 11.0436236,20.8498596 C14.8934551,20.7757303 20.0344382,19.0813483 22.1866292,18.3091011 C20.2454213,20.0808708 14.8364326,24.4243539 8.45235955,24.4325 C8.34238764,23.7466011 7.74935393,23.2219944 7.03331461,23.2219944 C6.23907303,23.2219944 5.5947191,23.8679775 5.5947191,24.6605899 C5.5947191,25.4548315 6.23907303,26.1 7.03331461,26.1 C7.75179775,26.1 8.34564607,25.5713202 8.45398876,24.8821629 C12.7282303,24.8772753 16.5291854,22.9743539 18.9664888,21.3801685 C20.4458146,20.4116011 21.6164045,19.434073 22.3625843,18.7595787 C21.8005056,19.8210112 20.7757303,21.4795506 19.1774719,23.1275 C16.7360955,25.6454494 12.420309,28.6489045 5.72505618,28.6489045 C5.7038764,28.6489045 5.68269663,28.6537921 5.66070225,28.660309 C5.58738764,27.9361236 4.97398876,27.3691573 4.23106742,27.3691573 C3.43764045,27.3691573 2.79247191,28.0143258 2.79247191,28.8085674 C2.79247191,29.6011798 3.43764045,30.2479775 4.23106742,30.2479775 C4.93081461,30.2479775 5.51488764,29.7445506 5.64196629,29.0822753 C5.66803371,29.0920506 5.69573034,29.0985674 5.72505618,29.0985674 C12.5783427,29.0985674 16.9975843,26.0217978 19.4976124,23.4411236 C21.2017697,21.6832022 22.2591292,19.941573 22.818764,18.8622191 C21.9601685,26.5643258 13.4206461,32.6412921 3.01241573,32.7121629 C2.81853933,32.1476404 2.28252809,31.7419663 1.65365169,31.7419663 C0.859410112,31.7419663 0.214241573,32.3879494 0.214241573,33.1805618 C0.214241573,33.9748034 0.859410112,34.6191573 1.65365169,34.6191573 C2.44789326,34.6191573 3.0930618,33.9748034 3.0930618,33.1805618 C3.0930618,33.1740449 3.12238764,33.1675281 3.12238764,33.1601966 C14.2360674,33.0551124 23.1608989,26.2026404 23.3930618,17.7592416 L23.3930618,17.5792135 C23.3930618,9.05272472 14.3004213,2.10575843 3.10853933,2.00230337 M2.63117978,2.32407303 C2.55542135,2.79654494 2.14730337,3.15904494 1.65446629,3.15904494 C1.10786517,3.15904494 0.663089888,2.71508427 0.663089888,2.16929775 C0.663089888,1.62269663 1.10786517,1.17792135 1.65446629,1.17792135 C2.17988764,1.17792135 2.60837079,1.58929775 2.64095506,2.10657303 C2.61977528,2.13997191 2.60755618,2.18151685 2.60755618,2.22469101 C2.60755618,2.2597191 2.61570225,2.29393258 2.63117978,2.32407303 M4.23188202,7.52941011 C3.68609551,7.52941011 3.24132022,7.08544944 3.24132022,6.53966292 C3.24132022,5.9938764 3.68609551,5.54910112 4.23188202,5.54910112 C4.77766854,5.54910112 5.22325843,5.9938764 5.22325843,6.53966292 C5.22325843,7.08544944 4.77766854,7.52941011 4.23188202,7.52941011 M7.03331461,11.676573 C6.48752809,11.676573 6.04275281,11.2317978 6.04275281,10.6868258 C6.04275281,10.1402247 6.48752809,9.69544944 7.03331461,9.69544944 C7.57991573,9.69544944 8.02469101,10.1402247 8.02469101,10.6868258 C8.02469101,11.2326124 7.57991573,11.676573 7.03331461,11.676573 M10.5825562,14.8046629 C10.4921348,15.2567697 10.0905337,15.6005337 9.61235955,15.6005337 C9.06575843,15.6005337 8.62179775,15.1549438 8.62179775,14.6091573 C8.62179775,14.0633708 9.06575843,13.6194101 9.61235955,13.6194101 C10.1524438,13.6194101 10.5931461,14.0552247 10.6012921,14.5928652 C10.5784831,14.6287079 10.5646348,14.6710674 10.5646348,14.7158708 C10.5638202,14.7476404 10.5695225,14.7777809 10.5825562,14.8046629 M13.1974438,18.6251685 C12.6516573,18.6251685 12.2085112,18.1803933 12.2085112,17.6346067 C12.2085112,17.0888202 12.6516573,16.6440449 13.1974438,16.6440449 C13.7448596,16.6440449 14.1888202,17.0888202 14.1888202,17.6346067 C14.1888202,18.1803933 13.7448596,18.6251685 13.1974438,18.6251685 M9.61154494,21.7263764 C9.06494382,21.7263764 8.62098315,21.2824157 8.62098315,20.7358146 C8.62098315,20.1900281 9.06494382,19.7444382 9.61154494,19.7444382 C10.0905337,19.7444382 10.4913202,20.0882022 10.5817416,20.5411236 C10.5687079,20.5680056 10.5638202,20.5973315 10.5638202,20.6291011 C10.5638202,20.6739045 10.5776685,20.7154494 10.6004775,20.7512921 C10.5923315,21.2905618 10.1516292,21.7263764 9.61154494,21.7263764 M7.03331461,25.6487079 C6.48752809,25.6487079 6.04275281,25.2039326 6.04275281,24.6581461 C6.04275281,24.1115449 6.48752809,23.6675843 7.03331461,23.6675843 C7.57991573,23.6675843 8.02469101,24.1115449 8.02469101,24.6581461 C8.02469101,25.2039326 7.57991573,25.6487079 7.03331461,25.6487079 M4.23188202,29.7950562 C3.68609551,29.7950562 3.24132022,29.3510955 3.24132022,28.805309 C3.24132022,28.2587079 3.68609551,27.8155618 4.23188202,27.8155618 C4.77766854,27.8155618 5.22325843,28.2587079 5.22325843,28.805309 C5.22325843,29.3510955 4.77766854,29.7950562 4.23188202,29.7950562 M1.65446629,34.166236 C1.10786517,34.166236 0.663089888,33.7214607 0.663089888,33.1756742 C0.663089888,32.6298876 1.10786517,32.185927 1.65446629,32.185927 C2.11064607,32.185927 2.49269663,32.4962921 2.60837079,32.9158146 C2.60837079,32.9215169 2.60755618,32.9280337 2.60755618,32.933736 C2.60755618,32.9703933 2.61733146,33.006236 2.6344382,33.037191 C2.63932584,33.0836236 2.64421348,33.128427 2.64421348,33.1756742 C2.64421348,33.7214607 2.20025281,34.166236 1.65446629,34.166236" id="Shape"></path>
                    <path d="M24.0919944,17.7543539 C24.3257865,26.1977528 33.1927809,33.0502247 44.3048315,33.155309 C44.3048315,33.1634551 44.2909831,33.1699719 44.2909831,33.1756742 C44.2909831,33.9682865 44.9296348,34.6142697 45.7238764,34.6142697 C46.5164888,34.6142697 47.1600281,33.9682865 47.1600281,33.1756742 C47.1600281,32.3830618 46.5124157,31.7370787 45.7189888,31.7370787 C45.0901124,31.7370787 44.5549157,32.1427528 44.3602247,32.7072753 C33.9519944,32.6372191 25.4108427,26.5602528 24.5522472,18.8581461 C25.1135112,19.9375 26.1692416,21.6791292 27.8717697,23.4370506 C30.3726124,26.0177247 34.7934831,29.0944944 41.6459551,29.0944944 C41.6744663,29.0944944 41.7029775,29.0879775 41.7274157,29.0782022 C41.8561236,29.7396629 42.4410112,30.2439045 43.1399438,30.2439045 C43.9341854,30.2439045 44.5785393,29.5971067 44.5785393,28.8044944 C44.5785393,28.0102528 43.9341854,27.3658989 43.1399438,27.3658989 C42.3970225,27.3658989 41.782809,27.9320506 41.7086798,28.656236 C41.6891292,28.6489045 41.6671348,28.6448315 41.6459551,28.6448315 C34.9498876,28.6448315 30.6341011,25.642191 28.1935393,23.123427 C26.5952809,21.4754775 25.5721348,19.8161236 25.008427,18.7555056 C25.7546067,19.43 26.9260112,20.4067135 28.4045225,21.3760955 C30.8426404,22.9719101 34.6435955,24.8732022 38.9178371,24.8780899 C39.0245506,25.5672472 39.6192135,26.095927 40.3376966,26.095927 C41.1311236,26.095927 41.7771067,25.4507584 41.7771067,24.6565169 C41.7771067,23.8639045 41.1311236,23.2179213 40.3376966,23.2179213 C39.6224719,23.2179213 39.0286236,23.7433427 38.9194663,24.428427 C32.5353933,24.4194663 27.1247753,20.0751685 25.184382,18.3042135 C27.336573,19.0756461 32.4783708,20.7700281 36.3282022,20.8433427 C36.3860393,21.5830056 37.0059551,22.1654494 37.7610955,22.1654494 C38.5537079,22.1654494 39.199691,21.5113202 39.199691,20.7187079 C39.199691,19.9260955 38.5537079,19.2654494 37.7610955,19.2654494 C37.0825281,19.2654494 36.5139326,19.7362921 36.3624157,20.368427 C32.6192978,20.3048876 27.5939888,18.781573 25.4173596,17.8496629 L31.129382,17.8496629 L32.7634831,17.8496629 C32.8938202,18.5485955 33.4770787,19.0226966 34.1735674,19.0226966 C34.9669944,19.0226966 35.6129775,18.4052247 35.6129775,17.6126124 C35.6129775,16.82 34.9669944,16.1609831 34.1735674,16.1609831 C33.4379775,16.1609831 32.8294663,16.6855899 32.7455618,17.3845225 L31.129382,17.3845225 L25.3122753,17.3845225 C27.4286236,16.6855899 32.5590169,14.9643258 36.3616011,14.8991573 C36.513118,15.5321067 37.0817135,16.0591573 37.7602809,16.0591573 C38.5528933,16.0591573 39.1988764,15.4066573 39.1988764,14.6140449 C39.1988764,13.8214326 38.5528933,13.1713764 37.7602809,13.1713764 C37.0051404,13.1713764 36.3852247,13.7546348 36.3273876,14.4942978 C32.4775562,14.568427 27.3357584,16.262809 25.1835674,17.0350562 C27.1239607,15.2632865 32.5345787,10.920618 38.9186517,10.9116573 C39.027809,11.5967416 39.6216573,12.1221629 40.336882,12.1221629 C41.130309,12.1221629 41.7762921,11.4769944 41.7762921,10.6835674 C41.7762921,9.89014045 41.130309,9.24497191 40.336882,9.24497191 C39.6183989,9.24497191 39.023736,9.77446629 38.9170225,10.4636236 C34.6427809,10.4685112 30.8418258,12.370618 28.4037079,13.965618 C26.951264,14.9170787 25.7953371,15.8758708 25.0491573,16.548736 C25.6210112,15.4816011 26.6392697,13.8548315 28.206573,12.2410955 C30.6463202,9.72884831 34.9588483,6.73353933 41.6451404,6.73353933 C41.6695787,6.73353933 41.6932022,6.72865169 41.7135674,6.72132022 C41.8048034,7.42758427 42.4092416,7.975 43.1391292,7.975 C43.9333708,7.975 44.5777247,7.32983146 44.5777247,6.53558989 C44.5777247,5.74216292 43.9333708,5.09780899 43.1391292,5.09780899 C42.4263483,5.09780899 41.8357584,5.6183427 41.7225281,6.29853933 C41.6980899,6.28957865 41.6720225,6.2838764 41.6451404,6.2838764 C34.7926685,6.2838764 30.3717978,9.36064607 27.8709551,11.9413202 C26.1382865,13.729382 25.0768539,15.4987079 24.5245506,16.5731742 C25.2063764,8.75702247 33.7980337,2.54238764 44.3080899,2.45115169 C44.4400562,3.11016854 45.0225,3.60707865 45.7181742,3.60707865 C46.5124157,3.60707865 47.1583989,2.96191011 47.1583989,2.16929775 C47.1583989,1.37587079 46.5148596,0.72988764 45.7222472,0.72988764 C44.9850281,0.72988764 44.4017697,1.28789326 44.3194944,2.00230337 C33.1267978,2.10494382 24.0919944,9.05272472 24.0919944,17.5792135 L24.0919944,17.7543539 Z M44.7406461,2.32407303 C44.7561236,2.29393258 44.7650843,2.26053371 44.7650843,2.22469101 C44.7650843,2.18070225 44.7520506,2.14078652 44.7292416,2.10575843 C44.7618258,1.58848315 45.1927528,1.17710674 45.7173596,1.17710674 C46.2639607,1.17710674 46.708736,1.62188202 46.708736,2.16848315 C46.708736,2.71345506 46.2639607,3.15823171 45.7173596,3.15823171 C45.2245225,3.15904494 44.8164045,2.79654494 44.7406461,2.32407303 M42.1501966,6.53884831 C42.1501966,5.9930618 42.5949719,5.54910112 43.1407584,5.54910112 C43.6865449,5.54910112 44.1313202,5.9930618 44.1313202,6.53884831 C44.1313202,7.08544944 43.6865449,7.53022472 43.1407584,7.53022472 C42.5949719,7.53022472 42.1501966,7.08544944 42.1501966,6.53884831 M39.3479494,10.6868258 C39.3479494,10.1402247 39.7919101,9.69707865 40.3385112,9.69707865 C40.8842978,9.69707865 41.329073,10.1402247 41.329073,10.6868258 C41.329073,11.2326124 40.8842978,11.6773876 40.3385112,11.6773876 C39.7919101,11.676573 39.3479494,11.2326124 39.3479494,10.6868258 M33.1838202,17.6346067 C33.1838202,17.0888202 33.6277809,16.6448596 34.174382,16.6448596 C34.7209831,16.6448596 35.1649438,17.0888202 35.1649438,17.6346067 C35.1649438,18.1803933 34.7209831,18.6251685 34.174382,18.6251685 C33.6277809,18.6251685 33.1838202,18.1803933 33.1838202,17.6346067 M39.3479494,24.6589607 C39.3479494,24.1123596 39.7919101,23.6683989 40.3385112,23.6683989 C40.8842978,23.6683989 41.329073,24.1123596 41.329073,24.6589607 C41.329073,25.2047472 40.8842978,25.6478933 40.3385112,25.6478933 C39.7919101,25.6470787 39.3479494,25.2039326 39.3479494,24.6589607 M42.1501966,28.805309 C42.1501966,28.2595225 42.5949719,27.8139326 43.1407584,27.8139326 C43.6865449,27.8139326 44.1313202,28.2595225 44.1313202,28.805309 C44.1313202,29.3510955 43.6865449,29.7950562 43.1407584,29.7950562 C42.5949719,29.7950562 42.1501966,29.3510955 42.1501966,28.805309 M44.7276124,33.1764888 C44.7276124,33.1292416 44.7316854,33.0844382 44.7390169,33.0380056 C44.7561236,33.0070506 44.7658989,32.9728371 44.7658989,32.9345506 C44.7658989,32.9280337 44.7642697,32.9215169 44.7642697,32.9166292 C44.8783146,32.4962921 45.262809,32.1867416 45.7181742,32.1867416 C46.2647753,32.1867416 46.7095506,32.6307022 46.7095506,33.1764888 C46.7095506,33.7222753 46.2647753,34.1670506 45.7181742,34.1670506 C45.1723876,34.166236 44.7276124,33.7214607 44.7276124,33.1764888 M36.7900843,14.8038483 C36.8023034,14.7769663 36.8088202,14.7476404 36.8088202,14.7158708 C36.8088202,14.6710674 36.7933427,14.6295225 36.7705337,14.5936798 C36.780309,14.0552247 37.219382,13.6202247 37.7610955,13.6202247 C38.306882,13.6202247 38.7508427,14.0641854 38.7508427,14.6099719 C38.7508427,15.1557584 38.306882,15.6005337 37.7610955,15.6005337 C37.2812921,15.5989045 36.8805056,15.2567697 36.7900843,14.8038483 M36.7705337,20.7521067 C36.7933427,20.716264 36.8088202,20.6739045 36.8088202,20.6299157 C36.8088202,20.5981461 36.8014888,20.5688202 36.7900843,20.5419382 C36.8805056,20.0890169 37.2821067,19.7452528 37.7610955,19.7452528 C38.306882,19.7452528 38.7508427,20.1908427 38.7508427,20.7366292 C38.7508427,21.2824157 38.306882,21.727191 37.7610955,21.727191 C37.219382,21.7263764 36.780309,21.2905618 36.7705337,20.7521067" id="Shape"></path>
                </g>
            </g>
        </g>
    </g>
</svg>