<?xml version="1.0" encoding="utf-8"?>
<!-- Generator: Adobe Illustrator 15.1.0, SVG Export Plug-In . SVG Version: 6.00 Build 0)  -->
<!DOCTYPE svg PUBLIC "-//W3C//DTD SVG 1.1//EN" "http://www.w3.org/Graphics/SVG/1.1/DTD/svg11.dtd">
<svg version="1.1" id="Layer_1" xmlns="http://www.w3.org/2000/svg" xmlns:xlink="http://www.w3.org/1999/xlink" x="0px" y="0px"
	 width="130px" height="130px" viewBox="0 0 130 130" enable-background="new 0 0 130 130" xml:space="preserve">
<g>
	<path fill="#4D4D4D" d="M99.094,108.034c-3.244,1.65-7.569,5.293-9.163,6.829c-1.195,1.139-6.146,1.708-8.936,0.285
		c-3.244-1.65-1.537-4.269-6.545-4.439c-2.505-0.057-4.952-0.057-7.399-0.057c-2.163,0.057-4.325,0.17-6.545,0.228
		c-7.513,0.171-8.253,5.008-13.091,4.838c-3.301-0.114-7.456-2.732-14.627-4.212c-5.009-1.024-9.847-1.31-10.871-3.529
		s1.252-4.724,1.423-6.887c0.171-2.902-2.163-6.829-0.455-8.31c1.479-1.309,4.61-0.341,6.659-1.479
		c2.162-1.252,3.073-2.22,3.073-4.895c0.797,2.731-0.057,4.951-1.821,6.033c-1.081,0.683-3.073,1.024-4.724,0.854
		c-1.31-0.114-2.106,0.057-2.447,0.569c-0.513,0.626-0.342,1.764,0.284,3.244c0.626,1.479,1.366,2.447,1.252,4.269
		c-0.057,1.821-2.105,3.983-1.765,5.521c0.114,0.569,0.684,1.081,2.106,1.479c2.276,0.626,6.432,1.253,10.473,2.22
		c4.496,1.139,9.163,3.188,12.065,2.789c8.651-1.195,3.699-10.473,2.334-12.692c-7.343-11.496-12.18-19.01-16.051-16.05
		c-0.967,0.797-1.024-1.936-0.967-3.017c0.17-3.756,2.049-5.122,3.187-8.025c2.163-5.521,3.813-11.838,7.115-15.082
		c2.447-3.188,6.317-8.366,7.057-11.099c-0.626-5.919-0.797-12.18-0.91-17.644c-0.114-5.862,0.797-10.984,7.398-14.57
		c1.594-0.854,3.7-1.195,5.92-1.195c3.927-0.057,8.31,1.081,11.099,3.13c4.438,3.302,7.228,10.302,6.887,15.311
		c-0.229,3.928,0.455,7.969,1.707,12.18c1.479,4.952,3.813,8.424,7.569,12.408c4.497,4.78,8.025,14.172,9.05,20.147
		c0.911,5.578-0.342,9.05-1.536,9.221c-1.821,0.284-2.96,6.033-8.651,5.805c-3.643-0.17-3.984-2.333-5.009-4.211
		c-1.65-2.903-3.301-1.992-3.927,1.081c-0.342,1.537-0.114,3.813,0.398,5.521c1.024,3.586,0.683,6.944,0.057,11.099
		c-1.195,7.854,5.521,9.334,10.017,5.578c4.439-3.7,5.407-4.269,10.985-6.204c8.48-2.902,5.635-5.464,1.081-7.001
		c-4.098-1.365-4.269-8.252-2.789-9.562c0.342,7.399,4.212,8.48,5.806,9.505C112.868,102.343,103.249,105.928,99.094,108.034z
		 M89.532,80.544c1.537-5.123,0.854-7.172-0.171-12.01c-0.797-3.643-4.154-8.594-6.772-10.131c0.683,0.569,1.935,2.22,3.244,4.725
		c2.276,4.269,4.553,10.586,3.073,15.822c-0.569,2.049-1.935,2.333-2.846,2.391c-3.984,0.455-1.65-4.781-3.301-11.896
		c-1.879-7.968-3.813-8.537-4.269-9.163c-2.334-10.359-4.896-9.334-5.635-13.205c-0.626-3.472,3.017-6.317-1.936-7.285
		c-1.536-0.284-3.699-1.821-4.553-1.935c-0.854-0.114-1.31-5.749,1.878-5.919c3.13-0.229,3.699,3.528,3.13,5.008
		c-0.91,1.48,0.058,2.049,1.594,1.537c1.253-0.398,0.456-3.699,0.74-4.155c-0.797-4.78-2.789-5.464-4.838-5.862
		c-7.854,0.627-4.325,9.277-5.122,8.48c-1.139-1.195-4.439-0.113-4.439-0.854c0.057-4.439-1.423-7-3.472-7.058
		c-2.277-0.057-3.188,3.131-3.302,4.952c-0.17,1.707,0.968,5.293,1.821,5.008c0.569-0.17,1.537-1.309,0.513-1.252
		c-0.513,0-1.31-1.252-1.423-2.731c-0.057-1.48,0.512-2.96,2.447-2.903c2.22,0.058,2.22,4.497,1.992,4.668
		c-0.74,0.512-1.65,1.479-1.765,1.65c-0.74,1.195-2.163,1.536-2.731,2.049c-0.968,1.024-1.195,2.162-0.456,2.561
		c2.618,1.48,1.765,3.188,5.407,3.302c2.391,0.113,4.155-0.342,5.806-0.854c1.252-0.398,5.293-1.253,6.146-2.732
		c0.398-0.626,0.854-0.626,1.139-0.455c0.569,0.284,0.683,1.366-0.74,1.707c-1.992,0.569-3.984,1.65-5.806,2.334
		c-1.764,0.739-2.333,1.024-3.983,1.309c-3.757,0.684-6.546-1.366-4.041,1.082c0.854,0.796,1.65,1.309,3.813,1.252
		c4.78-0.171,10.073-5.919,10.586-3.358c0.113,0.569-1.479,1.252-2.732,1.878c-4.439,2.163-7.569,6.489-10.415,5.009
		c-2.562-1.366-5.122-7.684-5.065-4.838c0.057,4.383-5.748,8.253-3.073,13.262c-1.765,0.455-5.691,8.821-6.261,13.147
		c-0.342,2.504,0.228,5.577-0.398,7.285c-0.854,2.504-4.725-2.391-3.472-8.367c0.228-1.024,0-1.252-0.285-0.739
		c-1.536,2.789-0.683,6.716,0.569,9.447c0.513,1.195,1.821,1.708,2.789,2.732c1.992,2.276,9.847,8.082,11.212,9.505
		c1.765,1.65,1.252,5.521-2.391,5.919c1.879,3.529,3.7,3.87,3.643,9.619c2.163-1.139,1.31-3.643,0.398-5.236
		c-0.626-1.139-1.423-1.65-1.252-1.936c0.114-0.171,1.252-1.138,1.879-0.398c1.935,2.163,5.577,2.562,9.447,2.049
		c3.928-0.455,8.139-1.821,10.074-4.951c0.911-1.479,1.537-1.992,1.936-1.707c0.455,0.228,0.626,1.252,0.568,2.959
		c-0.057,1.821-0.797,3.699-1.309,5.236c-0.513,1.765-0.683,2.96,1.024,3.017c0.455-3.188,1.366-6.317,1.594-9.505
		c0.284-3.643-2.334-10.358,0.512-13.717c0.74-0.91,1.651-1.024,2.903-1.024c0.171-4.553,7.171-4.212,9.505-2.333
		C92.663,81.91,90.443,80.942,89.532,80.544z M43.09,64.152c-0.398,0.739-1.423,1.309-0.626,1.423
		c0.284,0.057,1.081-0.626,1.423-1.423c0.284-0.968,0.568-1.48,0.113-1.65C43.488,62.331,43.602,63.355,43.09,64.152z
		 M56.123,33.304c-0.683-0.17-0.569,0.854-0.228,0.74c0.228,0,0.513,0.342,0.398,0.854c-0.114,0.684-0.057,1.139,0.455,1.139
		c0.057,0,0.171,0,0.171-0.171C57.147,34.442,56.465,33.418,56.123,33.304z M57.66,38.54c-0.569,0.057-0.456-1.252,1.365-1.138
		C57.888,37.516,58.286,38.54,57.66,38.54z M62.327,37.572c1.65-0.739,2.22,0.398,1.65,0.627
		C63.408,38.369,63.352,37.288,62.327,37.572z M69.214,32.963c-0.74,0.057-0.513,0.398-0.171,0.512
		c0.455,0.114,0.91,0.911,1.024,1.765c0,0.113,0.569-0.114,0.569-0.285C70.693,33.589,69.498,32.905,69.214,32.963z M72.515,20.669
		c-0.455-0.455-0.91-0.854-1.366-0.854c-1.138,0.113-0.568,1.309-0.739,1.878c-0.228,0.626-1.082,1.139-0.513,1.594
		c0.513,0.398,0.854-0.626,1.936-1.024c0.284-0.114,1.594,0.057,1.878-0.569C73.767,21.409,73.027,21.067,72.515,20.669z
		 M78.832,45.825c-1.081-0.683-1.309-1.821-1.707-1.423c-1.195,1.31,1.479,4.041,2.618,4.269c0.683,0.114,1.195-0.797,1.024-1.594
		C80.54,45.996,79.743,46.395,78.832,45.825z"/>
</g>
</svg>
