<?xml version="1.0" encoding="utf-8"?>
<!-- Generator: Adobe Illustrator 15.1.0, SVG Export Plug-In . SVG Version: 6.00 Build 0)  -->
<!DOCTYPE svg PUBLIC "-//W3C//DTD SVG 1.1//EN" "http://www.w3.org/Graphics/SVG/1.1/DTD/svg11.dtd">
<svg version="1.1" id="Layer_1" xmlns="http://www.w3.org/2000/svg" xmlns:xlink="http://www.w3.org/1999/xlink" x="0px" y="0px"
	 width="130px" height="130px" viewBox="0 0 130 130" enable-background="new 0 0 130 130" xml:space="preserve">
<g>
	<path fill="#4D4D4D" d="M98.542,100.022c-5.029,7.661-10.059,11.463-15.031,11.463c-1.988,0-4.678-0.643-8.188-1.871
		c-3.451-1.287-6.434-1.872-8.832-1.872c-2.339,0-5.146,0.644-8.305,1.931c-3.217,1.345-5.79,1.988-7.721,1.988
		c-6.023,0-11.814-5.088-17.604-15.148c-5.673-10.06-8.598-19.827-8.598-29.419c0-8.948,2.223-16.2,6.609-21.874
		c4.387-5.614,9.884-8.422,16.61-8.422c2.865,0,6.258,0.585,10.352,1.755c4.036,1.17,6.727,1.754,8.071,1.754
		c1.696,0,4.504-0.643,8.364-1.988c3.86-1.286,7.252-1.988,10.118-1.988c4.679,0,8.831,1.286,12.458,3.802
		c2.047,1.403,4.094,3.392,6.082,5.849c-3.041,2.573-5.264,4.854-6.667,6.901c-2.515,3.626-3.802,7.662-3.802,12.106
		c0,4.796,1.346,9.183,4.035,13.043c2.691,3.86,5.791,6.316,9.241,7.369C104.274,90.021,101.935,94.934,98.542,100.022z
		 M82.05,24.75c-1.17,2.924-2.983,5.614-5.439,8.07c-2.105,2.105-4.211,3.51-6.316,4.212c-1.346,0.409-3.334,0.76-6.083,0.994
		c0.116-5.79,1.637-10.82,4.562-15.031s7.838-7.077,14.622-8.656c0.116,0.526,0.233,0.936,0.292,1.287
		c0,0.409,0.059,0.76,0.059,1.169C83.745,19.193,83.161,21.884,82.05,24.75z"/>
</g>
</svg>
