<svg xmlns="http://www.w3.org/2000/svg" xmlns:xlink="http://www.w3.org/1999/xlink" width="169" height="29" xmlns:v="https://vecta.io/nano"><defs><path id="A" d="M.04.054h11.382v28.254H.04z"/><path id="B" d="M0 .054h13.277v28.254H0z"/></defs><g fill="none" fill-rule="evenodd"><g fill="#000"><path fill-rule="nonzero" d="M142.8 18c.896 0 1.692-.174 2.388-.522s1.236-.84 1.62-1.476.576-1.37.576-2.202-.192-1.566-.576-2.202-.924-1.128-1.62-1.476-1.492-.522-2.388-.522h-3.672V18h3.672zm-.072-1.32h-2.04v-5.76h2.04c.616 0 1.158.118 1.626.354s.828.572 1.08 1.008.378.942.378 1.518-.126 1.082-.378 1.518-.612.772-1.08 1.008-1 .354-1.626.354zm9.048 1.404c.656 0 1.244-.14 1.764-.42a3.06 3.06 0 0 0 1.218-1.17c.292-.5.438-1.066.438-1.698s-.146-1.196-.438-1.692-.698-.884-1.218-1.164-1.108-.42-1.764-.42c-.648 0-1.232.14-1.752.42s-.926.668-1.218 1.164-.438 1.06-.438 1.692.146 1.198.438 1.698a3.06 3.06 0 0 0 1.218 1.17c.52.28 1.104.42 1.752.42zm0-1.284c-.552 0-1.006-.184-1.362-.552s-.534-.852-.534-1.452.178-1.084.534-1.452.8-.552 1.362-.552 1.008.184 1.368.552.54.852.54 1.452-.18 1.084-.54 1.452-.816.552-1.368.552zm7.8 1.284c.624 0 1.174-.13 1.65-.4s.838-.63 1.086-1.1l-1.152-.672a1.83 1.83 0 0 1-.69.666c-.276.148-.578.222-.906.222-.568 0-1.034-.182-1.398-.546s-.546-.85-.546-1.458.184-1.094.552-1.458.832-.546 1.392-.546c.328 0 .63.074.906.222a1.83 1.83 0 0 1 .69.666l1.152-.672a2.49 2.49 0 0 0-1.074-1.104c-.476-.256-1.03-.384-1.662-.384-.672 0-1.27.14-1.794.42s-.934.668-1.23 1.164-.444 1.06-.444 1.692.148 1.198.444 1.698.708.9 1.236 1.17 1.124.42 1.788.42zm6.012 0c.896 0 1.604-.18 2.124-.54s.78-.84.78-1.44c0-.456-.118-.808-.354-1.056a1.97 1.97 0 0 0-.846-.528 8.75 8.75 0 0 0-1.26-.276c-.512-.088-.9-.182-1.134-.282s-.366-.27-.366-.5c0-.216.114-.4.342-.522s.562-.198 1.002-.198c.68 0 1.292.16 1.836.48l.576-1.14c-.28-.168-.64-.302-1.08-.402a5.94 5.94 0 0 0-1.32-.15c-.864 0-1.55.182-2.058.546s-.762.85-.762 1.458c0 .464.122.826.366 1.086a1.98 1.98 0 0 0 .864.546c.332.104.762.196 1.3.276.504.08.87.164 1.098.252s.342.244.342.468c0 .472-.448.708-1.344.708-.392 0-.8-.058-1.194-.174s-.75-.27-1.038-.462l-.576 1.14c.296.208.692.38 1.188.516s1.004.204 1.524.204zm-41.545-12.53l6.254 15.556h-1.114L122.93 5.555z"/><path d="M48.115 20.422V11.5l-3.582 6.765H43.48l-3.6-6.765v8.932h-1.9V8.01h2.037l4 7.587 3.99-7.587h2.037v12.41zm13.555-4.824l-1.93-5.332-1.996 5.332h3.925zM58.913 8.01h1.658l4.737 12.41H63.3l-1.27-3.373h-4.635l-1.252 3.373H54.14l4.77-12.4zm12.348 3.67v8.74H69.41V8.01h1.455l6.714 8.95V8.03h1.87v12.393H77.91zm21.403-1.94H89v10.68h-1.753V9.742h-3.68V8.01h9.095zm4.123 10.68H98.6V8.01h-1.813zm13.625-5.88c-.314-.263-.698-.486-1.154-.67s-.965-.35-1.53-.498l-1.208-.353c-.345-.11-.633-.235-.863-.378a1.47 1.47 0 0 1-.51-.499c-.1-.19-.165-.432-.165-.73 0-.527.175-.94.526-1.238s.897-.447 1.64-.447a4.01 4.01 0 0 1 .98.12c.32.08.613.184.88.3s.5.26.698.404l.205.16 1.05-1.337c-.48-.4-1.04-.717-1.68-.98s-1.334-.396-2.087-.396c-.576 0-1.1.08-1.6.24a3.62 3.62 0 0 0-1.28.713c-.36.316-.646.705-.855 1.17s-.314.994-.314 1.6c0 .48.07.9.212 1.228a2.52 2.52 0 0 0 .62.886c.272.252.614.467 1.028.644s.897.347 1.45.507l1.287.396a5.03 5.03 0 0 1 .957.42c.262.156.463.336.605.542s.21.465.21.774c0 .516-.188.905-.565 1.17s-.9.395-1.6.395c-.43 0-.842-.054-1.24-.163s-.766-.24-1.106-.396-.638-.323-.895-.507l-.24-.18-1.15 1.332c.64.54 1.353.948 2.143 1.23s1.608.42 2.455.42c.565 0 1.094-.066 1.585-.197s.923-.338 1.295-.62.664-.644.88-1.1.32-.98.32-1.6c0-.55-.086-1.016-.258-1.4a2.7 2.7 0 0 0-.73-.972"/></g><g transform="translate(14.504 .008)"><mask id="C" fill="#fff"><use xlink:href="#A"/></mask><path fill="#3f9" d="M3.203.054L.04 7.904l8.22 20.404 3.163-7.85z" mask="url(#C)"/></g><g transform="translate(0 .008)"><mask id="D" fill="#fff"><use xlink:href="#B"/></mask><path fill="#000" d="M8.22 7.904L5.058.054 0 12.61l3.162 7.85 1.896-4.705 5.057 12.555 3.162-7.85z" mask="url(#D)"/></g></g></svg>