<svg xmlns="http://www.w3.org/2000/svg" xmlns:xlink="http://www.w3.org/1999/xlink" width="169" height="29" viewBox="0 0 169 29">
    <defs>
        <path id="nwy9jaud3a" d="M0.041 0.054L11.423 0.054 11.423 28.308 0.041 28.308z"/>
        <path id="qwfeom7hxc" d="M0 0.054L13.277 0.054 13.277 28.308 0 28.308z"/>
    </defs>
    <g fill="none" fill-rule="evenodd">
        <g>
            <g>
                <text fill="#000" font-family="Montserrat-SemiBold, Montserrat SemiBold" font-size="12" font-weight="500" transform="translate(-22 -26) translate(22 26)">
                    <tspan x="138" y="18">Docs</tspan>
                </text>
                <g>
                    <path fill="#000" fill-rule="nonzero" d="M127 5.556L127 21.111 125.886 21.111 125.886 5.556z" transform="translate(-22 -26) translate(22 26)"/>
                    <g>
                        <path fill="#000" d="M48.115 20.422L48.115 11.49 44.533 18.255 43.48 18.255 39.881 11.49 39.881 20.422 37.98 20.422 37.98 8.011 40.017 8.011 44.007 15.598 47.996 8.011 50.033 8.011 50.033 20.422zM61.67 15.598l-1.929-5.332-1.996 5.332h3.925zm-2.757-7.587h1.658l4.737 12.411H63.31l-1.269-3.373h-4.635l-1.252 3.373h-2.013l4.77-12.41zM71.261 11.682L71.261 20.422 69.409 20.422 69.409 8.011 70.864 8.011 77.578 16.961 77.578 8.029 79.447 8.029 79.447 20.422 77.909 20.422zM92.664 9.742L89.001 9.742 89.001 20.422 87.248 20.422 87.248 9.742 83.569 9.742 83.569 8.011 92.664 8.011zM96.787 20.422L98.6 20.422 98.6 8.011 96.787 8.011z" transform="translate(-22 -26) translate(22 26)"/>
                        <g>
                            <path fill="#000" d="M110.412 14.535c-.314-.263-.698-.486-1.154-.67-.455-.183-.965-.35-1.53-.498-.46-.126-.863-.244-1.208-.353-.345-.109-.633-.235-.863-.378-.23-.143-.4-.31-.51-.499-.11-.189-.165-.432-.165-.73 0-.527.175-.94.526-1.238.35-.298.897-.447 1.64-.447.335 0 .661.04.98.12.32.08.613.184.88.31.266.126.499.26.698.404.076.055.143.108.205.16l1.05-1.337c-.481-.39-1.041-.717-1.679-.98-.638-.264-1.334-.396-2.087-.396-.576 0-1.11.08-1.6.241-.493.16-.919.398-1.28.713-.36.316-.646.705-.855 1.17-.21.463-.314.994-.314 1.59 0 .48.071.89.212 1.228.141.338.348.634.62.886s.614.467 1.028.644c.413.178.897.347 1.451.507.481.138.91.27 1.287.396.377.126.696.266.957.42.262.156.463.336.605.542.14.207.211.465.211.774 0 .516-.188.905-.565 1.169-.376.264-.91.395-1.6.395-.43 0-.842-.054-1.24-.163-.398-.109-.766-.24-1.106-.396-.34-.154-.638-.323-.895-.507-.087-.062-.165-.122-.239-.18l-1.15 1.332c.639.539 1.353.948 2.143 1.23.79.28 1.608.42 2.455.42.565 0 1.094-.066 1.585-.197.492-.132.923-.338 1.295-.62.371-.28.664-.644.879-1.09.214-.448.321-.98.321-1.6 0-.55-.086-1.016-.258-1.4-.173-.384-.416-.708-.73-.972" transform="translate(-22 -26) translate(22 26) translate(0 .008)"/>
                            <g transform="translate(-22 -26) translate(22 26) translate(0 .008) translate(14.504)">
                                <mask id="ksjm12xvqb" fill="#fff">
                                    <use xlink:href="#nwy9jaud3a"/>
                                </mask>
                                <path fill="#3F9" d="M3.203 0.054L0.041 7.904 8.26 28.308 11.423 20.458z" mask="url(#ksjm12xvqb)"/>
                            </g>
                            <g transform="translate(-22 -26) translate(22 26) translate(0 .008)">
                                <mask id="reqycf22ad" fill="#fff">
                                    <use xlink:href="#qwfeom7hxc"/>
                                </mask>
                                <path fill="#000" d="M8.22 7.904L5.058 0.054 1.895 7.904 0 12.609 3.162 20.458 5.058 15.753 10.115 28.308 13.277 20.458z" mask="url(#reqycf22ad)"/>
                            </g>
                        </g>
                    </g>
                </g>
            </g>
        </g>
    </g>
</svg>
